<svg width="380" height="185" viewBox="0 0 380 185" fill="none" xmlns="http://www.w3.org/2000/svg">
<path d="M55.7466 0.530273L184.207 56.1899L128.547 184.65L0.0869141 128.99L55.7466 0.530273Z" fill="#C2410C"/>
<path d="M71.0909 98.7273C71.0909 103.909 70.0833 108.28 68.0682 111.841C66.053 115.386 63.3333 118.076 59.9091 119.909C56.4849 121.727 52.6667 122.636 48.4546 122.636C44.2121 122.636 40.3788 121.72 36.9546 119.886C33.5455 118.038 30.8333 115.341 28.8182 111.795C26.8182 108.235 25.8182 103.879 25.8182 98.7273C25.8182 93.5455 26.8182 89.1818 28.8182 85.6364C30.8333 82.0758 33.5455 79.3864 36.9546 77.5682C40.3788 75.7348 44.2121 74.8182 48.4546 74.8182C52.6667 74.8182 56.4849 75.7348 59.9091 77.5682C63.3333 79.3864 66.053 82.0758 68.0682 85.6364C70.0833 89.1818 71.0909 93.5455 71.0909 98.7273ZM58.0909 98.7273C58.0909 95.9394 57.7197 93.5909 56.9773 91.6818C56.25 89.7576 55.1667 88.303 53.7273 87.3182C52.303 86.3182 50.5455 85.8182 48.4546 85.8182C46.3636 85.8182 44.5985 86.3182 43.1591 87.3182C41.7349 88.303 40.6515 89.7576 39.9091 91.6818C39.1818 93.5909 38.8182 95.9394 38.8182 98.7273C38.8182 101.515 39.1818 103.871 39.9091 105.795C40.6515 107.705 41.7349 109.159 43.1591 110.159C44.5985 111.144 46.3636 111.636 48.4546 111.636C50.5455 111.636 52.303 111.144 53.7273 110.159C55.1667 109.159 56.25 107.705 56.9773 105.795C57.7197 103.871 58.0909 101.515 58.0909 98.7273Z" fill="#FF8011"/>
<path d="M77.1193 122V87.0909H89.3011V93.7273H89.6648C90.3012 91.2727 91.3087 89.4773 92.6875 88.3409C94.0814 87.2045 95.7102 86.6364 97.5739 86.6364C98.1193 86.6364 98.6572 86.6818 99.1875 86.7727C99.733 86.8485 100.256 86.9621 100.756 87.1136V97.8182C100.134 97.6061 99.3693 97.447 98.4602 97.3409C97.5511 97.2349 96.7708 97.1818 96.1193 97.1818C94.8921 97.1818 93.786 97.4621 92.8011 98.0227C91.8315 98.5682 91.0663 99.3409 90.5057 100.341C89.9451 101.326 89.6648 102.485 89.6648 103.818V122H77.1193Z" fill="#FF8011"/>
<path d="M112.972 122.545C110.744 122.545 108.775 122.182 107.063 121.455C105.366 120.712 104.032 119.591 103.063 118.091C102.093 116.591 101.608 114.682 101.608 112.364C101.608 110.455 101.934 108.826 102.585 107.477C103.237 106.114 104.146 105 105.313 104.136C106.479 103.273 107.835 102.614 109.381 102.159C110.941 101.705 112.623 101.409 114.426 101.273C116.381 101.121 117.949 100.939 119.131 100.727C120.328 100.5 121.191 100.189 121.722 99.7955C122.252 99.3864 122.517 98.8485 122.517 98.1818V98.0909C122.517 97.1818 122.169 96.4848 121.472 96C120.775 95.5152 119.881 95.2727 118.79 95.2727C117.593 95.2727 116.616 95.5379 115.858 96.0682C115.116 96.5833 114.669 97.3788 114.517 98.4545H102.972C103.123 96.3333 103.797 94.3788 104.994 92.5909C106.206 90.7879 107.972 89.3485 110.29 88.2727C112.608 87.1818 115.502 86.6364 118.972 86.6364C121.472 86.6364 123.714 86.9318 125.699 87.5227C127.684 88.0985 129.373 88.9091 130.767 89.9545C132.161 90.9848 133.222 92.197 133.949 93.5909C134.691 94.9697 135.063 96.4697 135.063 98.0909V122H123.335V117.091H123.063C122.366 118.394 121.517 119.447 120.517 120.25C119.532 121.053 118.403 121.636 117.131 122C115.873 122.364 114.487 122.545 112.972 122.545ZM117.063 114.636C118.017 114.636 118.911 114.439 119.744 114.045C120.593 113.652 121.282 113.083 121.813 112.341C122.343 111.598 122.608 110.697 122.608 109.636V106.727C122.275 106.864 121.919 106.992 121.54 107.114C121.176 107.235 120.782 107.348 120.358 107.455C119.949 107.561 119.509 107.659 119.04 107.75C118.585 107.841 118.108 107.924 117.608 108C116.638 108.152 115.843 108.402 115.222 108.75C114.616 109.083 114.161 109.5 113.858 110C113.57 110.485 113.426 111.03 113.426 111.636C113.426 112.606 113.767 113.348 114.449 113.864C115.131 114.379 116.002 114.636 117.063 114.636Z" fill="#FF8011"/>
<path d="M153.602 102.364V122H141.057V87.0909H152.966V93.7273H153.33C154.087 91.5152 155.42 89.7803 157.33 88.5227C159.254 87.2652 161.496 86.6364 164.057 86.6364C166.527 86.6364 168.67 87.2045 170.489 88.3409C172.322 89.4621 173.739 91.0076 174.739 92.9773C175.754 94.947 176.254 97.197 176.239 99.7273V122H163.693V102.364C163.708 100.636 163.269 99.2803 162.375 98.2955C161.496 97.3106 160.269 96.8182 158.693 96.8182C157.663 96.8182 156.761 97.0455 155.989 97.5C155.231 97.9394 154.648 98.5758 154.239 99.4091C153.83 100.227 153.617 101.212 153.602 102.364Z" fill="#FF8011"/>
<path d="M199.25 135.818C195.75 135.818 192.75 135.318 190.25 134.318C187.765 133.333 185.833 131.97 184.455 130.227C183.091 128.5 182.326 126.515 182.159 124.273H194.25C194.371 125.015 194.674 125.614 195.159 126.068C195.644 126.523 196.265 126.848 197.023 127.045C197.795 127.258 198.659 127.364 199.614 127.364C201.235 127.364 202.576 126.97 203.636 126.182C204.712 125.394 205.25 123.97 205.25 121.909V116H204.886C204.432 117.182 203.735 118.189 202.795 119.023C201.856 119.841 200.727 120.47 199.409 120.909C198.091 121.333 196.644 121.545 195.068 121.545C192.583 121.545 190.295 120.97 188.205 119.818C186.129 118.667 184.462 116.841 183.205 114.341C181.962 111.841 181.341 108.576 181.341 104.545C181.341 100.333 181.992 96.9091 183.295 94.2727C184.614 91.6364 186.311 89.7045 188.386 88.4773C190.477 87.25 192.674 86.6364 194.977 86.6364C196.705 86.6364 198.22 86.9394 199.523 87.5455C200.826 88.1364 201.917 88.9318 202.795 89.9318C203.674 90.9167 204.341 92 204.795 93.1818H205.068V87.0909H217.614V121.909C217.614 124.864 216.848 127.371 215.318 129.432C213.803 131.508 211.667 133.091 208.909 134.182C206.152 135.273 202.932 135.818 199.25 135.818ZM199.705 112.636C200.856 112.636 201.841 112.318 202.659 111.682C203.492 111.03 204.129 110.106 204.568 108.909C205.023 107.697 205.25 106.242 205.25 104.545C205.25 102.818 205.023 101.341 204.568 100.114C204.129 98.8712 203.492 97.9242 202.659 97.2727C201.841 96.6061 200.856 96.2727 199.705 96.2727C198.553 96.2727 197.568 96.6061 196.75 97.2727C195.947 97.9242 195.326 98.8712 194.886 100.114C194.462 101.341 194.25 102.818 194.25 104.545C194.25 106.273 194.462 107.742 194.886 108.955C195.326 110.152 195.947 111.068 196.75 111.705C197.568 112.326 198.553 112.636 199.705 112.636Z" fill="#FF8011"/>
<path d="M240.722 122.636C236.994 122.636 233.782 121.924 231.085 120.5C228.403 119.061 226.335 117 224.881 114.318C223.441 111.621 222.722 108.394 222.722 104.636C222.722 101.03 223.449 97.8788 224.903 95.1818C226.358 92.4848 228.411 90.3864 231.063 88.8864C233.714 87.3864 236.843 86.6364 240.449 86.6364C243.085 86.6364 245.472 87.0455 247.608 87.8636C249.744 88.6818 251.57 89.8712 253.085 91.4318C254.6 92.9773 255.767 94.8561 256.585 97.0682C257.403 99.2803 257.812 101.773 257.812 104.545V107.455H226.631V100.545H246.267C246.252 99.5455 245.994 98.6667 245.494 97.9091C245.009 97.1364 244.35 96.5379 243.517 96.1136C242.699 95.6742 241.767 95.4545 240.722 95.4545C239.706 95.4545 238.775 95.6742 237.926 96.1136C237.078 96.5379 236.396 97.1288 235.881 97.8864C235.381 98.6439 235.116 99.5303 235.085 100.545V108C235.085 109.121 235.32 110.121 235.79 111C236.259 111.879 236.934 112.568 237.813 113.068C238.691 113.568 239.752 113.818 240.994 113.818C241.858 113.818 242.646 113.697 243.358 113.455C244.085 113.212 244.706 112.864 245.222 112.409C245.737 111.939 246.116 111.379 246.358 110.727H257.812C257.419 113.152 256.487 115.258 255.017 117.045C253.547 118.818 251.6 120.197 249.176 121.182C246.767 122.152 243.949 122.636 240.722 122.636Z" fill="#FF8011"/>
<path d="M262.75 122V75.4545H282.932C286.477 75.4545 289.455 75.9318 291.864 76.8864C294.288 77.8409 296.114 79.1894 297.341 80.9318C298.583 82.6742 299.205 84.7273 299.205 87.0909C299.205 88.803 298.826 90.3636 298.068 91.7727C297.326 93.1818 296.28 94.3636 294.932 95.3182C293.583 96.2576 292.008 96.9091 290.205 97.2727V97.7273C292.205 97.803 294.023 98.3106 295.659 99.25C297.295 100.174 298.599 101.455 299.568 103.091C300.538 104.712 301.023 106.621 301.023 108.818C301.023 111.364 300.356 113.629 299.023 115.614C297.705 117.598 295.826 119.159 293.386 120.295C290.947 121.432 288.038 122 284.659 122H262.75ZM275.386 111.909H281.295C283.417 111.909 285.008 111.515 286.068 110.727C287.129 109.924 287.659 108.742 287.659 107.182C287.659 106.091 287.409 105.167 286.909 104.409C286.409 103.652 285.697 103.076 284.773 102.682C283.864 102.288 282.765 102.091 281.477 102.091H275.386V111.909ZM275.386 94.2727H280.568C281.674 94.2727 282.652 94.0985 283.5 93.75C284.348 93.4015 285.008 92.9015 285.477 92.25C285.962 91.5833 286.205 90.7727 286.205 89.8182C286.205 88.3788 285.689 87.2803 284.659 86.5227C283.629 85.75 282.326 85.3636 280.75 85.3636H275.386V94.2727Z" fill="#FF8011"/>
<path d="M322.5 122.636C318.712 122.636 315.47 121.886 312.773 120.386C310.076 118.871 308.008 116.765 306.568 114.068C305.129 111.356 304.409 108.212 304.409 104.636C304.409 101.061 305.129 97.9242 306.568 95.2273C308.008 92.5152 310.076 90.4091 312.773 88.9091C315.47 87.3939 318.712 86.6364 322.5 86.6364C326.288 86.6364 329.53 87.3939 332.227 88.9091C334.924 90.4091 336.992 92.5152 338.432 95.2273C339.871 97.9242 340.591 101.061 340.591 104.636C340.591 108.212 339.871 111.356 338.432 114.068C336.992 116.765 334.924 118.871 332.227 120.386C329.53 121.886 326.288 122.636 322.5 122.636ZM322.591 113.364C323.652 113.364 324.568 113.008 325.341 112.295C326.114 111.583 326.712 110.568 327.136 109.25C327.561 107.932 327.773 106.364 327.773 104.545C327.773 102.712 327.561 101.144 327.136 99.8409C326.712 98.5227 326.114 97.5076 325.341 96.7955C324.568 96.0833 323.652 95.7273 322.591 95.7273C321.47 95.7273 320.508 96.0833 319.705 96.7955C318.902 97.5076 318.288 98.5227 317.864 99.8409C317.439 101.144 317.227 102.712 317.227 104.545C317.227 106.364 317.439 107.932 317.864 109.25C318.288 110.568 318.902 111.583 319.705 112.295C320.508 113.008 321.47 113.364 322.591 113.364Z" fill="#FF8011"/>
<path d="M355.312 87.0909L360.403 97.9091L365.767 87.0909H378.222L368.858 104.545L378.676 122H366.312L360.403 110.909L354.676 122H342.131L352.04 104.545L342.767 87.0909H355.312Z" fill="#FF8011"/>
<path d="M199.827 162H197.497L202.732 147.455H205.267L210.501 162H208.172L204.06 150.097H203.946L199.827 162ZM200.217 156.304H207.774V158.151H200.217V156.304Z" fill="white"/>
<path d="M219.342 157.476V151.091H221.473V162H219.385V160.111H219.271C219.02 160.693 218.618 161.178 218.064 161.567C217.514 161.95 216.83 162.142 216.011 162.142C215.31 162.142 214.69 161.988 214.15 161.68C213.615 161.368 213.194 160.906 212.886 160.295C212.583 159.685 212.431 158.929 212.431 158.03V151.091H214.555V157.774C214.555 158.518 214.761 159.109 215.173 159.55C215.585 159.99 216.12 160.21 216.778 160.21C217.176 160.21 217.571 160.111 217.964 159.912C218.362 159.713 218.691 159.412 218.951 159.01C219.217 158.607 219.347 158.096 219.342 157.476Z" fill="white"/>
<path d="M228.41 162.213C227.529 162.213 226.743 161.988 226.052 161.538C225.365 161.084 224.826 160.437 224.433 159.599C224.044 158.757 223.85 157.746 223.85 156.567C223.85 155.388 224.047 154.379 224.44 153.541C224.837 152.703 225.382 152.062 226.073 151.616C226.764 151.171 227.548 150.949 228.424 150.949C229.101 150.949 229.646 151.063 230.058 151.29C230.474 151.512 230.796 151.773 231.023 152.071C231.255 152.369 231.435 152.632 231.563 152.859H231.691V147.455H233.815V162H231.741V160.303H231.563C231.435 160.535 231.251 160.8 231.009 161.098C230.773 161.396 230.446 161.657 230.029 161.879C229.612 162.102 229.073 162.213 228.41 162.213ZM228.879 160.402C229.489 160.402 230.005 160.241 230.427 159.919C230.853 159.592 231.175 159.14 231.393 158.562C231.615 157.985 231.727 157.313 231.727 156.545C231.727 155.788 231.618 155.125 231.4 154.557C231.182 153.989 230.862 153.546 230.441 153.229C230.02 152.911 229.499 152.753 228.879 152.753C228.239 152.753 227.707 152.919 227.281 153.25C226.854 153.581 226.532 154.034 226.315 154.607C226.102 155.179 225.995 155.826 225.995 156.545C225.995 157.275 226.104 157.93 226.322 158.513C226.54 159.095 226.862 159.557 227.288 159.898C227.719 160.234 228.249 160.402 228.879 160.402Z" fill="white"/>
<path d="M236.846 162V151.091H238.969V162H236.846ZM237.918 149.408C237.549 149.408 237.231 149.285 236.966 149.038C236.706 148.787 236.576 148.489 236.576 148.143C236.576 147.793 236.706 147.495 236.966 147.249C237.231 146.998 237.549 146.872 237.918 146.872C238.287 146.872 238.602 146.998 238.863 147.249C239.128 147.495 239.26 147.793 239.26 148.143C239.26 148.489 239.128 148.787 238.863 149.038C238.602 149.285 238.287 149.408 237.918 149.408Z" fill="white"/>
<path d="M246.421 162.22C245.398 162.22 244.506 161.986 243.744 161.517C242.981 161.048 242.389 160.393 241.968 159.55C241.547 158.707 241.336 157.722 241.336 156.595C241.336 155.464 241.547 154.474 241.968 153.626C242.389 152.779 242.981 152.121 243.744 151.652C244.506 151.183 245.398 150.949 246.421 150.949C247.444 150.949 248.336 151.183 249.099 151.652C249.861 152.121 250.453 152.779 250.874 153.626C251.296 154.474 251.506 155.464 251.506 156.595C251.506 157.722 251.296 158.707 250.874 159.55C250.453 160.393 249.861 161.048 249.099 161.517C248.336 161.986 247.444 162.22 246.421 162.22ZM246.428 160.438C247.091 160.438 247.64 160.262 248.076 159.912C248.512 159.562 248.834 159.095 249.042 158.513C249.255 157.93 249.362 157.289 249.362 156.588C249.362 155.892 249.255 155.253 249.042 154.67C248.834 154.083 248.512 153.612 248.076 153.257C247.64 152.902 247.091 152.724 246.428 152.724C245.761 152.724 245.207 152.902 244.766 153.257C244.331 153.612 244.006 154.083 243.793 154.67C243.585 155.253 243.481 155.892 243.481 156.588C243.481 157.289 243.585 157.93 243.793 158.513C244.006 159.095 244.331 159.562 244.766 159.912C245.207 160.262 245.761 160.438 246.428 160.438Z" fill="white"/>
<path d="M259.417 146.773L254.729 164.188H252.833L257.52 146.773H259.417Z" fill="white"/>
<path d="M262.721 147.455L266.769 159.301H266.933L270.981 147.455H273.353L268.119 162H265.583L260.349 147.455H262.721Z" fill="white"/>
<path d="M275.283 162V151.091H277.407V162H275.283ZM276.355 149.408C275.986 149.408 275.669 149.285 275.404 149.038C275.143 148.787 275.013 148.489 275.013 148.143C275.013 147.793 275.143 147.495 275.404 147.249C275.669 146.998 275.986 146.872 276.355 146.872C276.725 146.872 277.04 146.998 277.3 147.249C277.565 147.495 277.698 147.793 277.698 148.143C277.698 148.489 277.565 148.787 277.3 149.038C277.04 149.285 276.725 149.408 276.355 149.408Z" fill="white"/>
<path d="M284.347 162.213C283.467 162.213 282.681 161.988 281.989 161.538C281.303 161.084 280.763 160.437 280.37 159.599C279.982 158.757 279.788 157.746 279.788 156.567C279.788 155.388 279.984 154.379 280.377 153.541C280.775 152.703 281.319 152.062 282.011 151.616C282.702 151.171 283.486 150.949 284.362 150.949C285.039 150.949 285.583 151.063 285.995 151.29C286.412 151.512 286.734 151.773 286.961 152.071C287.193 152.369 287.373 152.632 287.501 152.859H287.629V147.455H289.752V162H287.678V160.303H287.501C287.373 160.535 287.188 160.8 286.947 161.098C286.71 161.396 286.383 161.657 285.967 161.879C285.55 162.102 285.01 162.213 284.347 162.213ZM284.816 160.402C285.427 160.402 285.943 160.241 286.364 159.919C286.79 159.592 287.112 159.14 287.33 158.562C287.553 157.985 287.664 157.313 287.664 156.545C287.664 155.788 287.555 155.125 287.337 154.557C287.12 153.989 286.8 153.546 286.379 153.229C285.957 152.911 285.436 152.753 284.816 152.753C284.177 152.753 283.644 152.919 283.218 153.25C282.792 153.581 282.47 154.034 282.252 154.607C282.039 155.179 281.933 155.826 281.933 156.545C281.933 157.275 282.041 157.93 282.259 158.513C282.477 159.095 282.799 159.557 283.225 159.898C283.656 160.234 284.186 160.402 284.816 160.402Z" fill="white"/>
<path d="M297.485 162.22C296.41 162.22 295.484 161.991 294.708 161.531C293.936 161.067 293.339 160.416 292.918 159.578C292.501 158.735 292.293 157.748 292.293 156.616C292.293 155.499 292.501 154.514 292.918 153.662C293.339 152.81 293.927 152.144 294.679 151.666C295.437 151.188 296.322 150.949 297.336 150.949C297.951 150.949 298.548 151.051 299.125 151.254C299.703 151.458 300.221 151.777 300.681 152.213C301.14 152.649 301.502 153.214 301.767 153.911C302.033 154.602 302.165 155.442 302.165 156.432V157.185H293.493V155.594H300.084C300.084 155.035 299.971 154.54 299.743 154.109C299.516 153.674 299.196 153.33 298.784 153.08C298.377 152.829 297.899 152.703 297.35 152.703C296.753 152.703 296.232 152.85 295.787 153.143C295.347 153.432 295.006 153.811 294.765 154.28C294.528 154.744 294.409 155.248 294.409 155.793V157.036C294.409 157.765 294.537 158.385 294.793 158.896C295.053 159.408 295.416 159.798 295.88 160.068C296.344 160.333 296.886 160.466 297.506 160.466C297.909 160.466 298.275 160.409 298.607 160.295C298.938 160.177 299.225 160.002 299.466 159.77C299.708 159.538 299.892 159.251 300.02 158.911L302.03 159.273C301.869 159.865 301.58 160.383 301.164 160.828C300.752 161.268 300.233 161.612 299.608 161.858C298.988 162.099 298.28 162.22 297.485 162.22Z" fill="white"/>
<path d="M309.116 162.22C308.094 162.22 307.201 161.986 306.439 161.517C305.677 161.048 305.085 160.393 304.663 159.55C304.242 158.707 304.031 157.722 304.031 156.595C304.031 155.464 304.242 154.474 304.663 153.626C305.085 152.779 305.677 152.121 306.439 151.652C307.201 151.183 308.094 150.949 309.116 150.949C310.139 150.949 311.032 151.183 311.794 151.652C312.556 152.121 313.148 152.779 313.57 153.626C313.991 154.474 314.202 155.464 314.202 156.595C314.202 157.722 313.991 158.707 313.57 159.55C313.148 160.393 312.556 161.048 311.794 161.517C311.032 161.986 310.139 162.22 309.116 162.22ZM309.124 160.438C309.786 160.438 310.336 160.262 310.771 159.912C311.207 159.562 311.529 159.095 311.737 158.513C311.95 157.93 312.057 157.289 312.057 156.588C312.057 155.892 311.95 155.253 311.737 154.67C311.529 154.083 311.207 153.612 310.771 153.257C310.336 152.902 309.786 152.724 309.124 152.724C308.456 152.724 307.902 152.902 307.462 153.257C307.026 153.612 306.702 154.083 306.489 154.67C306.28 155.253 306.176 155.892 306.176 156.588C306.176 157.289 306.28 157.93 306.489 158.513C306.702 159.095 307.026 159.562 307.462 159.912C307.902 160.262 308.456 160.438 309.124 160.438Z" fill="white"/>
<path d="M322.036 162V147.455H327.22C328.352 147.455 329.289 147.661 330.033 148.072C330.776 148.484 331.332 149.048 331.702 149.763C332.071 150.473 332.256 151.273 332.256 152.163C332.256 153.058 332.069 153.863 331.695 154.578C331.325 155.288 330.767 155.852 330.018 156.268C329.275 156.68 328.34 156.886 327.213 156.886H323.648V155.026H327.014C327.729 155.026 328.309 154.902 328.754 154.656C329.199 154.405 329.526 154.064 329.734 153.634C329.943 153.203 330.047 152.713 330.047 152.163C330.047 151.614 329.943 151.126 329.734 150.7C329.526 150.274 329.197 149.94 328.747 149.699C328.302 149.457 327.715 149.337 326.986 149.337H324.23V162H322.036Z" fill="white"/>
<path d="M336.782 147.455V162H334.658V147.455H336.782Z" fill="white"/>
<path d="M342.813 162.241C342.122 162.241 341.497 162.114 340.938 161.858C340.38 161.598 339.937 161.221 339.61 160.729C339.288 160.236 339.127 159.633 339.127 158.918C339.127 158.302 339.246 157.795 339.482 157.398C339.719 157 340.039 156.685 340.441 156.453C340.844 156.221 341.293 156.046 341.79 155.928C342.288 155.809 342.794 155.719 343.31 155.658C343.964 155.582 344.494 155.52 344.901 155.473C345.309 155.421 345.604 155.338 345.789 155.224C345.974 155.111 346.066 154.926 346.066 154.67V154.621C346.066 154 345.891 153.52 345.54 153.179C345.195 152.838 344.679 152.668 343.992 152.668C343.277 152.668 342.714 152.826 342.302 153.143C341.895 153.456 341.613 153.804 341.457 154.188L339.461 153.733C339.698 153.07 340.043 152.535 340.498 152.128C340.957 151.716 341.485 151.418 342.082 151.233C342.678 151.044 343.306 150.949 343.964 150.949C344.399 150.949 344.861 151.001 345.349 151.105C345.841 151.205 346.3 151.389 346.727 151.659C347.157 151.929 347.51 152.315 347.785 152.817C348.059 153.314 348.197 153.96 348.197 154.756V162H346.123V160.509H346.038C345.9 160.783 345.694 161.053 345.42 161.318C345.145 161.583 344.792 161.804 344.362 161.979C343.931 162.154 343.415 162.241 342.813 162.241ZM343.275 160.537C343.862 160.537 344.364 160.421 344.781 160.189C345.202 159.957 345.522 159.654 345.739 159.28C345.962 158.901 346.073 158.496 346.073 158.065V156.659C345.997 156.735 345.851 156.806 345.633 156.872C345.42 156.934 345.176 156.988 344.901 157.036C344.627 157.078 344.359 157.118 344.099 157.156C343.838 157.189 343.621 157.218 343.445 157.241C343.033 157.294 342.657 157.381 342.316 157.504C341.98 157.627 341.71 157.805 341.506 158.037C341.308 158.264 341.208 158.567 341.208 158.946C341.208 159.472 341.402 159.869 341.79 160.139C342.179 160.404 342.674 160.537 343.275 160.537Z" fill="white"/>
<path d="M351.977 166.091C351.66 166.091 351.371 166.065 351.11 166.013C350.85 165.965 350.656 165.913 350.528 165.857L351.039 164.116C351.428 164.221 351.773 164.266 352.076 164.251C352.379 164.237 352.647 164.124 352.879 163.911C353.116 163.697 353.324 163.349 353.504 162.866L353.767 162.142L349.775 151.091H352.048L354.811 159.557H354.924L357.687 151.091H359.967L355.471 163.456C355.263 164.024 354.998 164.505 354.676 164.898C354.354 165.295 353.97 165.594 353.525 165.793C353.08 165.991 352.564 166.091 351.977 166.091Z" fill="white"/>
<path d="M366.293 162.22C365.219 162.22 364.293 161.991 363.516 161.531C362.745 161.067 362.148 160.416 361.727 159.578C361.31 158.735 361.102 157.748 361.102 156.616C361.102 155.499 361.31 154.514 361.727 153.662C362.148 152.81 362.735 152.144 363.488 151.666C364.246 151.188 365.131 150.949 366.144 150.949C366.76 150.949 367.356 151.051 367.934 151.254C368.512 151.458 369.03 151.777 369.489 152.213C369.949 152.649 370.311 153.214 370.576 153.911C370.841 154.602 370.974 155.442 370.974 156.432V157.185H362.302V155.594H368.893C368.893 155.035 368.779 154.54 368.552 154.109C368.325 153.674 368.005 153.33 367.593 153.08C367.186 152.829 366.708 152.703 366.158 152.703C365.562 152.703 365.041 152.85 364.596 153.143C364.156 153.432 363.815 153.811 363.573 154.28C363.336 154.744 363.218 155.248 363.218 155.793V157.036C363.218 157.765 363.346 158.385 363.602 158.896C363.862 159.408 364.224 159.798 364.688 160.068C365.152 160.333 365.694 160.466 366.315 160.466C366.717 160.466 367.084 160.409 367.415 160.295C367.747 160.177 368.033 160.002 368.275 159.77C368.516 159.538 368.701 159.251 368.829 158.911L370.839 159.273C370.678 159.865 370.389 160.383 369.972 160.828C369.56 161.268 369.042 161.612 368.417 161.858C367.797 162.099 367.089 162.22 366.293 162.22Z" fill="white"/>
<path d="M373.33 162V151.091H375.382V152.824H375.496C375.695 152.237 376.045 151.775 376.547 151.439C377.054 151.098 377.627 150.928 378.266 150.928C378.399 150.928 378.555 150.932 378.735 150.942C378.919 150.951 379.064 150.963 379.168 150.977V153.009C379.083 152.985 378.931 152.959 378.713 152.93C378.496 152.897 378.278 152.881 378.06 152.881C377.558 152.881 377.111 152.987 376.718 153.2C376.329 153.409 376.022 153.7 375.794 154.074C375.567 154.443 375.453 154.865 375.453 155.338V162H373.33Z" fill="white"/>
</svg>
